#tb 0: 1/25
0,          2,          2,        1,   152064, 0x2061bbd0
0,          4,          4,        1,   152064, 0x41adb750
0,          6,          6,        1,   152064, 0x6e889e90
0,          8,          8,        1,   152064, 0xbb5e60f5
0,         10,         10,        1,   152064, 0x5a32eca7
0,         12,         12,        1,   152064, 0x5cb05e88
0,         14,         14,        1,   152064, 0x2fff3e6c
0,         16,         16,        1,   152064, 0xd917c85e
0,         18,         18,        1,   152064, 0x6eac446f
0,         20,         20,        1,   152064, 0x238b24b0
0,         22,         22,        1,   152064, 0x3f3bd44c
0,         24,         24,        1,   152064, 0x73982bc5
0,         26,         26,        1,   152064, 0xf6188a82
0,         28,         28,        1,   152064, 0x818c5b41
0,         30,         30,        1,   152064, 0x000d1012
0,         32,         32,        1,   152064, 0xc4a8750e
0,         34,         34,        1,   152064, 0x1689bb77
0,         36,         36,        1,   152064, 0x8f52f338
0,         38,         38,        1,   152064, 0xbf5ee06b
0,         40,         40,        1,   152064, 0x89508ad7
0,         42,         42,        1,   152064, 0x2b1986a6
0,         44,         44,        1,   152064, 0xe6fd6b0e
0,         46,         46,        1,   152064, 0x883e2e4e
0,         48,         48,        1,   152064, 0xd133db07
0,         50,         50,        1,   152064, 0x39b3bb22
0,         52,         52,        1,   152064, 0x8447410a
0,         54,         54,        1,   152064, 0x9c66c6e5
0,         56,         56,        1,   152064, 0x514de9cc
0,         58,         58,        1,   152064, 0x08d9f1da
0,         60,         60,        1,   152064, 0x8f10f536
0,         62,         62,        1,   152064, 0x57d4b27b
0,         64,         64,        1,   152064, 0x46f56d3c
0,         66,         66,        1,   152064, 0x5d260230
0,         68,         68,        1,   152064, 0x4a72aeac
0,         70,         70,        1,   152064, 0x5cfe187f
0,         72,         72,        1,   152064, 0x08e55cb2
0,         74,         74,        1,   152064, 0x4727f34f
0,         76,         76,        1,   152064, 0xd6a26f1c
0,         78,         78,        1,   152064, 0xcc1fcf9c
0,         80,         80,        1,   152064, 0x3681b775
0,         82,         82,        1,   152064, 0xf580c7d9
0,         84,         84,        1,   152064, 0xaa6747fb
0,         86,         86,        1,   152064, 0x2e22f9f9
0,         88,         88,        1,   152064, 0xb3ee6d81
0,         90,         90,        1,   152064, 0x930b0145
0,         92,         92,        1,   152064, 0xae36af99
0,         94,         94,        1,   152064, 0xeb58fd26
0,         96,         96,        1,   152064, 0xb9004da3
0,         98,         98,        1,   152064, 0x2b25e444
0,         99,         99,        1,   152064, 0xb36927de
